<svg xmlns="http://www.w3.org/2000/svg" xmlns:xlink="http://www.w3.org/1999/xlink" width="553.699" height="103.806" viewBox="0 0 553.699 103.806">
  <defs>
    <linearGradient id="linear-gradient" x1="0.5" x2="0.596" y2="1.608" gradientUnits="objectBoundingBox">
      <stop offset="0" stop-color="#1abcbd"/>
      <stop offset="1" stop-color="#3266d5"/>
    </linearGradient>
  </defs>
  <g id="グループ_80" data-name="グループ 80" transform="translate(-509.735 1489.481)">
    <g id="グループ_78" data-name="グループ 78" transform="translate(-70.831 69.998)">
      <g id="logo" transform="translate(580.567 -1559.479)">
        <path id="パス_522" data-name="パス 522" d="M532.324,212.714c-28.021-9.617-40.435,12.166-39.952,13.393.522,1.306,2.35,1.044,7.05,1.306,3.517.2,7.473,2.293,9.241,3.335a47.24,47.24,0,0,1,23.66-18.033Z" transform="translate(-492.358 -210.173)" fill="url(#linear-gradient)"/>
        <path id="パス_523" data-name="パス 523" d="M615.356,259.78a3.518,3.518,0,0,0-.021-.363,6.839,6.839,0,0,0-.5-2.146c-.956-2.943-2.846-6.732-2.35-8.719,1.828-7.311-.144-14.649-4.833-20.616a47.133,47.133,0,0,0-84.21,29.1c0,.491,0,.979.023,1.465l-.023-.029a49.353,49.353,0,0,0,49.352,49.352s4.084.334,13.709-.653c10.184-1.044,10.818-3.264,15.276-3.264,4.7,0,7.05,1.567,7.834.522s-2.611-7.311-2.872-11.489.261-11.489-.522-11.228-5.484,5.484-8.617,8.095-5.222,3.395-5.484,4.178,0,2.35-.783,2.872a26.144,26.144,0,0,1-18.018,1.757,28.071,28.071,0,0,1-17.4-48.308,27.483,27.483,0,0,1,4.092,10.006c.783,5.222.783,9.578.914,10.142s.914.3,1.436-.219,8.095-4.439,9.923-10.706c1.8-6.191,2.59-9.583,2.35-16.973h.645a28.083,28.083,0,0,1,27.075,20.634,6.915,6.915,0,0,0,13.007-3.275v-.131Z" transform="translate(-515.324 -209.9)" fill="url(#linear-gradient)"/>
      </g>
    </g>
    <g id="logo-group" transform="translate(327.48 -1861.177)">
      <path id="path368127" d="M359.8,394.366H333.52v65.226h25.624c19.568,0,33.266-13.418,33.266-32.613,0-19.475-13.138-32.613-32.706-32.613Zm.28,53.019H348.049V406.48h11.368c10.715,0,18.17,8.479,18.17,20.593,0,12.02-7.175,20.406-17.425,20.406Z" transform="translate(0 -2.258)" fill="#334663"/>
      <path id="path368129" d="M454.811,412.857a25.533,25.533,0,1,0,25.811,25.531A25.691,25.691,0,0,0,454.811,412.857Zm0,37.458a11.93,11.93,0,1,1,12.207-11.927A12.072,12.072,0,0,1,454.811,450.316Z" transform="translate(-20.432 -6.215)" fill="#334663"/>
      <path id="path368131" d="M532.685,458.142V388.91H518.521v69.232Z" transform="translate(-39.589 -1.091)" fill="#334663"/>
      <path id="path368133" d="M592.639,412.809a16.673,16.673,0,0,0-13.884,6.988l-1.211,1.677v-8.2H563.381V481.67h14.163V454.935l1.211,1.677a16.836,16.836,0,0,0,14.257,7.082c13.138,0,21.618-9.971,21.618-25.345s-8.852-25.718-21.991-25.718Zm-3.727,39.229a12.553,12.553,0,0,1-11.275-7.734V431.538a12.613,12.613,0,0,1,11.275-7.641c6.8,0,11.554,5.777,11.554,13.977,0,8.293-4.752,14.07-11.554,14.07Z" transform="translate(-49.188 -6.167)" fill="#334663"/>
      <path id="path368135" d="M683.74,407.542c-6.988.093-12.393,3.168-15.561,8.852l-1.3,2.236V388.906H652.711v69.232h14.164v-24.6c0-7.734,4.193-12.858,10.529-12.858,5.684,0,9.225,4.007,9.225,10.437v27.115h14.163V426.553c0-11.554-6.709-19.009-17.052-19.009Z" transform="translate(-68.304 -1.09)" fill="#334663"/>
      <path id="path368137" d="M753.59,457.051V407.106H739.52v49.945Zm-7.082-57.212c4.752,0,8.107-3.261,8.107-7.92a8.107,8.107,0,0,0-16.213,0C738.4,396.578,741.756,399.839,746.508,399.839Z" transform="translate(-86.641 0)" fill="#334663"/>
      <path id="path368139" d="M815.494,412.616c-7.082.093-12.3,3.075-15.561,8.852l-1.3,2.236v-10.25H784.466V463.4h14.163V438.334c.745-6.8,4.752-12.393,10.529-12.393,5.591,0,9.225,4.1,9.225,10.437v27.115h14.07V431.811c0-11.554-6.616-19.009-16.959-19.009Z" transform="translate(-96.498 -6.164)" fill="#334663"/>
    </g>
  </g>
</svg>
