<svg xmlns="http://www.w3.org/2000/svg" width="510.699" height="104.104" viewBox="0 0 510.699 104.104">
  <g id="logo-group" transform="translate(-424.023 -457.48)">
    <path id="path170980" d="M479.9,526.74c12.432-4.372,19.263-14.482,19.263-30.6,0-21.039-13.115-31.286-36.066-31.286H424.023v95.632h21.449V529.2h13.8l16.941,31.286h24.181Zm-18.034-15.028H445.336V482.475h16.531c11.066,0,17.214,3.962,17.214,14.482,0,10.656-6.284,14.755-17.214,14.755Z" fill="#1c1e21"/>
    <path id="path170982" d="M574.15,495.863c-6.011-6.284-14.482-9.563-25.138-9.563-21.449,0-35.93,15.165-35.93,37.707s14.345,37.16,36.613,37.16c12.022,0,22.268-4.235,29.509-12.3L568.548,537.8a24.488,24.488,0,0,1-17.077,7.241c-8.88,0-15.3-5.328-17.624-14.618l-.273-1.23h50.138c.683-14.482-2.6-25.957-9.563-33.334Zm-10.246,22.4H533.3l.137-1.093c1.639-9.836,7.651-15.984,15.711-15.984,8.743,0,14.618,6.558,14.618,16.257Z" fill="#1c1e21"/>
    <path id="path170984" d="M631.193,515.408c-6.968-2.186-12.979-4.1-12.979-8.743,0-3.825,3.006-6.148,7.924-6.148,5.875,0,13.662,2.6,22,7.241l6.831-13.8a55.034,55.034,0,0,0-27.87-7.787c-17.077,0-27.734,8.743-27.734,22.815-.137,15.3,12.842,19.263,23.225,22.541,7.1,2.186,13.252,4.1,13.252,9.153,0,3.825-3.415,6.148-8.743,6.148-7.924,0-16.8-3.142-24.728-8.743l-6.421,13.525c8.2,6.421,18.989,9.973,30.6,9.973,17.487,0,28.827-9.017,28.827-22.951.137-15.437-13.252-19.536-24.045-22.815Z" fill="#1c1e21"/>
    <path id="path170986" d="M717.468,486.03c-10.246.137-18.171,4.645-22.815,12.979l-1.913,3.279V458.712H671.975V560.219h20.766V524.152c0-11.339,6.148-18.853,15.437-18.853,8.334,0,13.525,5.875,13.525,15.3v39.755h20.766V513.907c0-16.941-9.836-27.87-25-27.87Z" fill="#1c1e21"/>
    <path id="path170988" d="M818.923,495.863c-6.011-6.284-14.482-9.563-25.138-9.563-21.449,0-35.93,15.165-35.93,37.707s14.345,37.16,36.613,37.16c12.022,0,22.268-4.235,29.509-12.3L813.321,537.8a24.488,24.488,0,0,1-17.077,7.241c-8.88,0-15.3-5.328-17.624-14.618l-.273-1.23h50.138c.683-14.482-2.6-25.957-9.563-33.334Zm-10.246,22.4h-30.6l.137-1.093c1.639-9.836,7.651-15.984,15.711-15.984,8.743,0,14.618,6.558,14.618,16.257Z" fill="#1c1e21"/>
    <path id="path170990" d="M865.444,560.217V458.711H844.678V560.217Z" fill="#1c1e21"/>
    <path id="path170992" d="M913,477.153a9.189,9.189,0,0,1,6.694-2.459,14.765,14.765,0,0,1,7.924,2.6l7.1-15.028a37.409,37.409,0,0,0-18.444-4.782c-15.847,0-26.094,9.7-26.094,24.728v7.924h-9.563v13.935h9.563v55.877h20.493V504.081h15.984V490.146H910.677v-6.421a9.38,9.38,0,0,1,2.6-6.831Z" fill="#1c1e21"/>
  </g>
</svg>
