<svg id="レイヤー_1" data-name="レイヤー 1" xmlns="http://www.w3.org/2000/svg" xmlns:xlink="http://www.w3.org/1999/xlink" viewBox="0 0 383.05 375.21"><defs><style>.cls-1{fill:url(#名称未設定グラデーション_12);}.cls-2{fill:none;stroke:#000;stroke-miterlimit:10;}.cls-3{fill:#2baaaa;}.cls-4{fill:url(#名称未設定グラデーション_15);}.cls-5{fill:url(#名称未設定グラデーション_12-2);}</style><radialGradient id="名称未設定グラデーション_12" cx="683.91" cy="397.53" r="189.58" gradientUnits="userSpaceOnUse"><stop offset="0.01" stop-color="#2cbfbf"/><stop offset="1" stop-color="#2cd5bf"/></radialGradient><linearGradient id="名称未設定グラデーション_15" x1="518.39" y1="204.35" x2="605.97" y2="276.01" gradientUnits="userSpaceOnUse"><stop offset="0.21" stop-color="#2cd5bf"/><stop offset="1" stop-color="#2cbfbf"/></linearGradient><radialGradient id="名称未設定グラデーション_12-2" cx="699.44" cy="397.53" r="181.89" xlink:href="#名称未設定グラデーション_12"/></defs><path class="cls-1" d="M875.44,400.92a13.57,13.57,0,0,0-.08-1.39,26.2,26.2,0,0,0-1.92-8.22c-3.66-11.27-10.9-25.78-9-33.39,7-28-.55-56.1-18.51-78.95a180.7,180.7,0,0,0-200.52-59.34c-107.31-36.83-154.85,46.59-153,51.29,2,5,9,4,27,5,13.47.75,28.62,8.78,35.39,12.77a179.66,179.66,0,0,0-31.39,101.73c0,1.88,0,3.75.09,5.61l-.09-.11c0,104.38,84.62,189,189,189,0,0,15.64,1.28,52.5-2.5,39-4,41.43-12.5,58.5-12.5,18,0,27,6,30,2s-10-28-11-44,1-44-2-43-21,21-33,31-20,13-21,16,0,9-3,11-21,10-44,10A97,97,0,0,1,662.3,397.11c.46,1.91.85,3.85,1.14,5.81,3,20,3,36.68,3.5,38.84s3.5,1.16,5.5-.84,31-17,38-41c4.39-15,7.2-25.76,8.44-38.81a97.1,97.1,0,0,1,104.06,45.44,26.23,26.23,0,0,0,2.69,7.42h0a26.48,26.48,0,0,0,49.81-12.55c0-.17,0-.33,0-.5Z" transform="translate(-492.39 -209.92)"/><path class="cls-2" d="M523.44,396.42" transform="translate(-492.39 -209.92)"/><path class="cls-3" d="M721.94,334.92a107.5,107.5,0,0,0-7.53,214.73,97,97,0,1,1,108.53-143.1,26.23,26.23,0,0,0,2.69,7.42A107.55,107.55,0,0,0,721.94,334.92Z" transform="translate(-492.39 -209.92)"/><path class="cls-4" d="M645.41,219.63c-107.31-36.83-154.85,46.59-153,51.29,2,5,9,4,27,5,13.47.75,28.62,8.78,35.39,12.77A180.91,180.91,0,0,1,645.41,219.63Z" transform="translate(-492.39 -209.92)"/><path class="cls-5" d="M875.44,400.92a13.57,13.57,0,0,0-.08-1.39,26.2,26.2,0,0,0-1.92-8.22c-3.66-11.27-10.9-25.78-9-33.39,7-28-.55-56.1-18.51-78.95A180.5,180.5,0,0,0,523.44,390.42c0,1.88,0,3.75.09,5.61l-.09-.11c0,104.38,84.62,189,189,189,0,0,15.64,1.28,52.5-2.5,39-4,41.43-12.5,58.5-12.5,18,0,27,6,30,2s-10-28-11-44,1-44-2-43-21,21-33,31-20,13-21,16,0,9-3,11-21,10-44,10a97,97,0,0,1-25-3.27,107.5,107.5,0,0,1-66.64-185s12.67,18.32,15.67,38.32,3,36.68,3.5,38.84,3.5,1.16,5.5-.84,31-17,38-41c6.91-23.71,9.92-36.7,9-65,.82,0,1.64,0,2.47,0A107.55,107.55,0,0,1,825.63,414a26.48,26.48,0,0,0,49.81-12.55c0-.17,0-.33,0-.5Z" transform="translate(-492.39 -209.92)"/></svg>
