<svg xmlns="http://www.w3.org/2000/svg" width="150" height="150" viewBox="0 0 150 150">
  <g id="グループ_79" data-name="グループ 79" transform="translate(-641 1363)">
    <rect id="長方形_151" data-name="長方形 151" width="150" height="150" rx="74" transform="translate(641 -1363)" fill="#fff"/>
    <g id="logo" transform="translate(662.984 -1331.99)">
      <path id="パス_522" data-name="パス 522" d="M532.324,212.714c-28.021-9.617-40.435,12.166-39.952,13.393.522,1.306,2.35,1.044,7.05,1.306,3.517.2,7.473,2.293,9.241,3.335a47.24,47.24,0,0,1,23.66-18.033Z" transform="translate(-492.358 -210.173)" fill="#3367d6"/>
      <path id="パス_523" data-name="パス 523" d="M615.356,259.78a3.518,3.518,0,0,0-.021-.363,6.839,6.839,0,0,0-.5-2.146c-.956-2.943-2.846-6.732-2.35-8.719,1.828-7.311-.144-14.649-4.833-20.616a47.133,47.133,0,0,0-84.21,29.1c0,.491,0,.979.023,1.465l-.023-.029a49.353,49.353,0,0,0,49.352,49.352s4.084.334,13.709-.653c10.184-1.044,10.818-3.264,15.276-3.264,4.7,0,7.05,1.567,7.834.522s-2.611-7.311-2.872-11.489.261-11.489-.522-11.228-5.484,5.484-8.617,8.095-5.222,3.395-5.484,4.178,0,2.35-.783,2.872a26.144,26.144,0,0,1-18.018,1.757,28.071,28.071,0,0,1-17.4-48.308,27.483,27.483,0,0,1,4.092,10.006c.783,5.222.783,9.578.914,10.142s.914.3,1.436-.219,8.095-4.439,9.923-10.706c1.8-6.191,2.59-9.583,2.35-16.973h.645a28.083,28.083,0,0,1,27.075,20.634,6.915,6.915,0,0,0,13.007-3.275v-.131Z" transform="translate(-515.324 -209.9)" fill="#3367d6"/>
    </g>
  </g>
</svg>
