<svg xmlns="http://www.w3.org/2000/svg" width="95.34" height="14.493" viewBox="0 0 95.34 14.493">
  <g id="_5.0" data-name="5.0" transform="translate(-83.852 -207.988)">
    <path id="パス_184" data-name="パス 184" d="M374.477,603.392a1.533,1.533,0,0,1-.9-.3l-2.18-1.584a1.056,1.056,0,0,0-1.246,0l-2.18,1.584a1.539,1.539,0,0,1-2.368-1.72l.833-2.562a1.058,1.058,0,0,0-.385-1.185l-2.18-1.584a1.539,1.539,0,0,1,.9-2.784h2.694a1.057,1.057,0,0,0,1.008-.732l.833-2.562a1.539,1.539,0,0,1,2.927,0l.833,2.562a1.057,1.057,0,0,0,1.008.732h2.694a1.539,1.539,0,0,1,.9,2.784l-2.18,1.584a1.058,1.058,0,0,0-.385,1.185l.833,2.562a1.516,1.516,0,0,1-.559,1.72,1.534,1.534,0,0,1-.9.3Z" transform="translate(-279.381 -380.911)" fill="#FFBD64"/>
    <path id="パス_185" data-name="パス 185" d="M430.985,603.392a1.533,1.533,0,0,1-.9-.3l-2.18-1.584a1.057,1.057,0,0,0-1.246,0l-2.18,1.584a1.539,1.539,0,0,1-2.368-1.72l.833-2.562a1.058,1.058,0,0,0-.385-1.185l-2.18-1.584a1.539,1.539,0,0,1,.9-2.784h2.694a1.057,1.057,0,0,0,1.008-.732l.833-2.562a1.539,1.539,0,0,1,2.927,0l.833,2.562a1.057,1.057,0,0,0,1.008.732h2.694a1.539,1.539,0,0,1,.9,2.784L432,597.624a1.057,1.057,0,0,0-.385,1.185l.833,2.562a1.516,1.516,0,0,1-.559,1.72,1.535,1.535,0,0,1-.9.3Z" transform="translate(-315.801 -380.911)" fill="#FFBD64"/>
    <path id="パス_186" data-name="パス 186" d="M487.494,603.392a1.533,1.533,0,0,1-.9-.3l-2.18-1.584a1.059,1.059,0,0,0-1.246,0l-2.18,1.584a1.539,1.539,0,0,1-2.368-1.72l.832-2.562a1.058,1.058,0,0,0-.385-1.185l-2.18-1.584a1.539,1.539,0,0,1,.9-2.784h2.694a1.057,1.057,0,0,0,1.008-.732l.833-2.562a1.539,1.539,0,0,1,2.927,0l.833,2.562a1.057,1.057,0,0,0,1.008.732h2.694a1.539,1.539,0,0,1,.9,2.784l-2.18,1.584a1.058,1.058,0,0,0-.385,1.185l.833,2.562a1.516,1.516,0,0,1-.559,1.72A1.535,1.535,0,0,1,487.494,603.392Z" transform="translate(-352.22 -380.911)" fill="#FFBD64"/>
    <path id="パス_187" data-name="パス 187" d="M544,603.392a1.533,1.533,0,0,1-.9-.3l-2.18-1.584a1.056,1.056,0,0,0-1.246,0l-2.18,1.584a1.539,1.539,0,0,1-2.368-1.72l.833-2.562a1.057,1.057,0,0,0-.385-1.185l-2.18-1.584a1.539,1.539,0,0,1,.9-2.784h2.694a1.057,1.057,0,0,0,1.008-.732l.832-2.562a1.539,1.539,0,0,1,2.927,0l.833,2.562a1.057,1.057,0,0,0,1.008.732h2.694a1.539,1.539,0,0,1,.9,2.784l-2.18,1.584a1.057,1.057,0,0,0-.385,1.185l.833,2.562a1.516,1.516,0,0,1-.559,1.72,1.534,1.534,0,0,1-.9.3Z" transform="translate(-388.64 -380.911)" fill="#FFBD64"/>
    <path id="パス_486" data-name="パス 486" d="M544,603.392a1.533,1.533,0,0,1-.9-.3l-2.18-1.584a1.056,1.056,0,0,0-1.246,0l-2.18,1.584a1.539,1.539,0,0,1-2.368-1.72l.833-2.562a1.057,1.057,0,0,0-.385-1.185l-2.18-1.584a1.539,1.539,0,0,1,.9-2.784h2.694a1.057,1.057,0,0,0,1.008-.732l.832-2.562a1.539,1.539,0,0,1,2.927,0l.833,2.562a1.057,1.057,0,0,0,1.008.732h2.694a1.539,1.539,0,0,1,.9,2.784l-2.18,1.584a1.057,1.057,0,0,0-.385,1.185l.833,2.562a1.516,1.516,0,0,1-.559,1.72,1.534,1.534,0,0,1-.9.3Z" transform="translate(-368.64 -380.911)" fill="#FFBD64"/>
  </g>
</svg>
