<svg xmlns="http://www.w3.org/2000/svg" width="96.326" height="14.796" viewBox="0 0 96.326 14.796">
  <g id="_2.5_2.9" data-name="2.5~2.9" transform="translate(-83.852 -207.837)">
    <path id="パス_184" data-name="パス 184" d="M374.477,603.392a1.533,1.533,0,0,1-.9-.3l-2.18-1.584a1.056,1.056,0,0,0-1.246,0l-2.18,1.584a1.539,1.539,0,0,1-2.368-1.72l.833-2.562a1.058,1.058,0,0,0-.385-1.185l-2.18-1.584a1.539,1.539,0,0,1,.9-2.784h2.694a1.057,1.057,0,0,0,1.008-.732l.833-2.562a1.539,1.539,0,0,1,2.927,0l.833,2.562a1.057,1.057,0,0,0,1.008.732h2.694a1.539,1.539,0,0,1,.9,2.784l-2.18,1.584a1.058,1.058,0,0,0-.385,1.185l.833,2.562a1.516,1.516,0,0,1-.559,1.72,1.534,1.534,0,0,1-.9.3Z" transform="translate(-279.381 -380.911)" fill="#FFBD64"/>
    <path id="パス_185" data-name="パス 185" d="M430.985,603.392a1.533,1.533,0,0,1-.9-.3l-2.18-1.584a1.057,1.057,0,0,0-1.246,0l-2.18,1.584a1.539,1.539,0,0,1-2.368-1.72l.833-2.562a1.058,1.058,0,0,0-.385-1.185l-2.18-1.584a1.539,1.539,0,0,1,.9-2.784h2.694a1.057,1.057,0,0,0,1.008-.732l.833-2.562a1.539,1.539,0,0,1,2.927,0l.833,2.562a1.057,1.057,0,0,0,1.008.732h2.694a1.539,1.539,0,0,1,.9,2.784L432,597.624a1.057,1.057,0,0,0-.385,1.185l.833,2.562a1.516,1.516,0,0,1-.559,1.72,1.535,1.535,0,0,1-.9.3Z" transform="translate(-315.801 -380.911)" fill="#FFBD64"/>
    <g id="グループ_64" data-name="グループ 64" transform="translate(-48)">
      <path id="パス_207" data-name="パス 207" d="M539.571,601.508l-2.148,1.584a1.5,1.5,0,0,1-1.782,0,1.552,1.552,0,0,1-.551-1.72l.82-2.562a1.066,1.066,0,0,0-.38-1.185l-2.148-1.584a1.552,1.552,0,0,1-.551-1.72,1.519,1.519,0,0,1,1.442-1.063h2.655a1.043,1.043,0,0,0,.993-.732l.82-2.562a1.519,1.519,0,0,1,1.442-1.063S539.936,601.237,539.571,601.508Z" transform="translate(-360.441 -380.911)" fill="#FFBD64"/>
      <path id="パス_188" data-name="パス 188" d="M592.86,603.308a1.685,1.685,0,0,1-.993-.329,1.665,1.665,0,0,1-.614-1.89l.833-2.562a.906.906,0,0,0-.33-1.016l-2.18-1.584a1.69,1.69,0,0,1,.993-3.058h2.694a.906.906,0,0,0,.864-.628l.833-2.562a1.69,1.69,0,0,1,3.215,0l.833,2.562a.906.906,0,0,0,.864.628h2.694a1.69,1.69,0,0,1,.994,3.058l-2.18,1.584a.906.906,0,0,0-.33,1.016l.833,2.562a1.69,1.69,0,0,1-2.6,1.89L597.1,601.4a.906.906,0,0,0-1.068,0l-2.18,1.584A1.685,1.685,0,0,1,592.86,603.308Zm3.707-2.869a1.687,1.687,0,0,1,.993.323l2.18,1.584a.908.908,0,0,0,1.4-1.016l-.833-2.562a1.686,1.686,0,0,1,.614-1.89l2.18-1.584a.908.908,0,0,0-.534-1.643h-2.694a1.686,1.686,0,0,1-1.607-1.168l-.833-2.562a.908.908,0,0,0-1.728,0l-.833,2.562a1.686,1.686,0,0,1-1.607,1.168h-2.694a.908.908,0,0,0-.534,1.643l2.18,1.584a1.686,1.686,0,0,1,.614,1.89L592,601.331a.908.908,0,0,0,1.4,1.016l2.18-1.584A1.688,1.688,0,0,1,596.567,600.439Z" transform="translate(-416.824 -380.675)" fill="#FFBD64"/>
    </g>
    <g id="グループ_66" data-name="グループ 66" transform="translate(-27.655)">
      <path id="パス_188-2" data-name="パス 188" d="M592.86,603.308a1.685,1.685,0,0,1-.993-.329,1.665,1.665,0,0,1-.614-1.89l.833-2.562a.906.906,0,0,0-.33-1.016l-2.18-1.584a1.69,1.69,0,0,1,.993-3.058h2.694a.906.906,0,0,0,.864-.628l.833-2.562a1.69,1.69,0,0,1,3.215,0l.833,2.562a.906.906,0,0,0,.864.628h2.694a1.69,1.69,0,0,1,.994,3.058l-2.18,1.584a.906.906,0,0,0-.33,1.016l.833,2.562a1.69,1.69,0,0,1-2.6,1.89L597.1,601.4a.906.906,0,0,0-1.068,0l-2.18,1.584A1.685,1.685,0,0,1,592.86,603.308Zm3.707-2.869a1.687,1.687,0,0,1,.993.323l2.18,1.584a.908.908,0,0,0,1.4-1.016l-.833-2.562a1.686,1.686,0,0,1,.614-1.89l2.18-1.584a.908.908,0,0,0-.534-1.643h-2.694a1.686,1.686,0,0,1-1.607-1.168l-.833-2.562a.908.908,0,0,0-1.728,0l-.833,2.562a1.686,1.686,0,0,1-1.607,1.168h-2.694a.908.908,0,0,0-.534,1.643l2.18,1.584a1.686,1.686,0,0,1,.614,1.89L592,601.331a.908.908,0,0,0,1.4,1.016l2.18-1.584A1.688,1.688,0,0,1,596.567,600.439Z" transform="translate(-416.824 -380.675)" fill="#FFBD64"/>
    </g>
    <g id="グループ_67" data-name="グループ 67" transform="translate(-7.255)">
      <path id="パス_188-3" data-name="パス 188" d="M592.86,603.308a1.685,1.685,0,0,1-.993-.329,1.665,1.665,0,0,1-.614-1.89l.833-2.562a.906.906,0,0,0-.33-1.016l-2.18-1.584a1.69,1.69,0,0,1,.993-3.058h2.694a.906.906,0,0,0,.864-.628l.833-2.562a1.69,1.69,0,0,1,3.215,0l.833,2.562a.906.906,0,0,0,.864.628h2.694a1.69,1.69,0,0,1,.994,3.058l-2.18,1.584a.906.906,0,0,0-.33,1.016l.833,2.562a1.69,1.69,0,0,1-2.6,1.89L597.1,601.4a.906.906,0,0,0-1.068,0l-2.18,1.584A1.685,1.685,0,0,1,592.86,603.308Zm3.707-2.869a1.687,1.687,0,0,1,.993.323l2.18,1.584a.908.908,0,0,0,1.4-1.016l-.833-2.562a1.686,1.686,0,0,1,.614-1.89l2.18-1.584a.908.908,0,0,0-.534-1.643h-2.694a1.686,1.686,0,0,1-1.607-1.168l-.833-2.562a.908.908,0,0,0-1.728,0l-.833,2.562a1.686,1.686,0,0,1-1.607,1.168h-2.694a.908.908,0,0,0-.534,1.643l2.18,1.584a1.686,1.686,0,0,1,.614,1.89L592,601.331a.908.908,0,0,0,1.4,1.016l2.18-1.584A1.688,1.688,0,0,1,596.567,600.439Z" transform="translate(-416.824 -380.675)" fill="#FFBD64"/>
    </g>
  </g>
</svg>
