<svg xmlns="http://www.w3.org/2000/svg" width="96.878" height="14.796" viewBox="0 0 96.878 14.796">
  <g id="_0.9" data-name="~0.9" transform="translate(-82.9 -207.837)">
    <g id="グループ_64" data-name="グループ 64" transform="translate(-89.155)">
      <path id="パス_207" data-name="パス 207" d="M539.571,601.508l-2.148,1.584a1.5,1.5,0,0,1-1.782,0,1.552,1.552,0,0,1-.551-1.72l.82-2.562a1.066,1.066,0,0,0-.38-1.185l-2.148-1.584a1.552,1.552,0,0,1-.551-1.72,1.519,1.519,0,0,1,1.442-1.063h2.655a1.043,1.043,0,0,0,.993-.732l.82-2.562a1.519,1.519,0,0,1,1.442-1.063S539.936,601.237,539.571,601.508Z" transform="translate(-360.441 -380.911)" fill="#FFBD64"/>
      <path id="パス_188" data-name="パス 188" d="M592.86,603.308a1.685,1.685,0,0,1-.993-.329,1.665,1.665,0,0,1-.614-1.89l.833-2.562a.906.906,0,0,0-.33-1.016l-2.18-1.584a1.69,1.69,0,0,1,.993-3.058h2.694a.906.906,0,0,0,.864-.628l.833-2.562a1.69,1.69,0,0,1,3.215,0l.833,2.562a.906.906,0,0,0,.864.628h2.694a1.69,1.69,0,0,1,.994,3.058l-2.18,1.584a.906.906,0,0,0-.33,1.016l.833,2.562a1.69,1.69,0,0,1-2.6,1.89L597.1,601.4a.906.906,0,0,0-1.068,0l-2.18,1.584A1.685,1.685,0,0,1,592.86,603.308Zm3.707-2.869a1.687,1.687,0,0,1,.993.323l2.18,1.584a.908.908,0,0,0,1.4-1.016l-.833-2.562a1.686,1.686,0,0,1,.614-1.89l2.18-1.584a.908.908,0,0,0-.534-1.643h-2.694a1.686,1.686,0,0,1-1.607-1.168l-.833-2.562a.908.908,0,0,0-1.728,0l-.833,2.562a1.686,1.686,0,0,1-1.607,1.168h-2.694a.908.908,0,0,0-.534,1.643l2.18,1.584a1.686,1.686,0,0,1,.614,1.89L592,601.331a.908.908,0,0,0,1.4,1.016l2.18-1.584A1.688,1.688,0,0,1,596.567,600.439Z" transform="translate(-416.824 -380.675)" fill="#FFBD64"/>
    </g>
    <g id="グループ_66" data-name="グループ 66" transform="translate(-68.809)">
      <path id="パス_188-2" data-name="パス 188" d="M592.86,603.308a1.685,1.685,0,0,1-.993-.329,1.665,1.665,0,0,1-.614-1.89l.833-2.562a.906.906,0,0,0-.33-1.016l-2.18-1.584a1.69,1.69,0,0,1,.993-3.058h2.694a.906.906,0,0,0,.864-.628l.833-2.562a1.69,1.69,0,0,1,3.215,0l.833,2.562a.906.906,0,0,0,.864.628h2.694a1.69,1.69,0,0,1,.994,3.058l-2.18,1.584a.906.906,0,0,0-.33,1.016l.833,2.562a1.69,1.69,0,0,1-2.6,1.89L597.1,601.4a.906.906,0,0,0-1.068,0l-2.18,1.584A1.685,1.685,0,0,1,592.86,603.308Zm3.707-2.869a1.687,1.687,0,0,1,.993.323l2.18,1.584a.908.908,0,0,0,1.4-1.016l-.833-2.562a1.686,1.686,0,0,1,.614-1.89l2.18-1.584a.908.908,0,0,0-.534-1.643h-2.694a1.686,1.686,0,0,1-1.607-1.168l-.833-2.562a.908.908,0,0,0-1.728,0l-.833,2.562a1.686,1.686,0,0,1-1.607,1.168h-2.694a.908.908,0,0,0-.534,1.643l2.18,1.584a1.686,1.686,0,0,1,.614,1.89L592,601.331a.908.908,0,0,0,1.4,1.016l2.18-1.584A1.688,1.688,0,0,1,596.567,600.439Z" transform="translate(-416.824 -380.675)" fill="#FFBD64"/>
    </g>
    <g id="グループ_67" data-name="グループ 67" transform="translate(-48.409)">
      <path id="パス_188-3" data-name="パス 188" d="M592.86,603.308a1.685,1.685,0,0,1-.993-.329,1.665,1.665,0,0,1-.614-1.89l.833-2.562a.906.906,0,0,0-.33-1.016l-2.18-1.584a1.69,1.69,0,0,1,.993-3.058h2.694a.906.906,0,0,0,.864-.628l.833-2.562a1.69,1.69,0,0,1,3.215,0l.833,2.562a.906.906,0,0,0,.864.628h2.694a1.69,1.69,0,0,1,.994,3.058l-2.18,1.584a.906.906,0,0,0-.33,1.016l.833,2.562a1.69,1.69,0,0,1-2.6,1.89L597.1,601.4a.906.906,0,0,0-1.068,0l-2.18,1.584A1.685,1.685,0,0,1,592.86,603.308Zm3.707-2.869a1.687,1.687,0,0,1,.993.323l2.18,1.584a.908.908,0,0,0,1.4-1.016l-.833-2.562a1.686,1.686,0,0,1,.614-1.89l2.18-1.584a.908.908,0,0,0-.534-1.643h-2.694a1.686,1.686,0,0,1-1.607-1.168l-.833-2.562a.908.908,0,0,0-1.728,0l-.833,2.562a1.686,1.686,0,0,1-1.607,1.168h-2.694a.908.908,0,0,0-.534,1.643l2.18,1.584a1.686,1.686,0,0,1,.614,1.89L592,601.331a.908.908,0,0,0,1.4,1.016l2.18-1.584A1.688,1.688,0,0,1,596.567,600.439Z" transform="translate(-416.824 -380.675)" fill="#FFBD64"/>
    </g>
    <g id="グループ_70" data-name="グループ 70" transform="translate(-28.054)">
      <path id="パス_188-4" data-name="パス 188" d="M592.86,603.308a1.685,1.685,0,0,1-.993-.329,1.665,1.665,0,0,1-.614-1.89l.833-2.562a.906.906,0,0,0-.33-1.016l-2.18-1.584a1.69,1.69,0,0,1,.993-3.058h2.694a.906.906,0,0,0,.864-.628l.833-2.562a1.69,1.69,0,0,1,3.215,0l.833,2.562a.906.906,0,0,0,.864.628h2.694a1.69,1.69,0,0,1,.994,3.058l-2.18,1.584a.906.906,0,0,0-.33,1.016l.833,2.562a1.69,1.69,0,0,1-2.6,1.89L597.1,601.4a.906.906,0,0,0-1.068,0l-2.18,1.584A1.685,1.685,0,0,1,592.86,603.308Zm3.707-2.869a1.687,1.687,0,0,1,.993.323l2.18,1.584a.908.908,0,0,0,1.4-1.016l-.833-2.562a1.686,1.686,0,0,1,.614-1.89l2.18-1.584a.908.908,0,0,0-.534-1.643h-2.694a1.686,1.686,0,0,1-1.607-1.168l-.833-2.562a.908.908,0,0,0-1.728,0l-.833,2.562a1.686,1.686,0,0,1-1.607,1.168h-2.694a.908.908,0,0,0-.534,1.643l2.18,1.584a1.686,1.686,0,0,1,.614,1.89L592,601.331a.908.908,0,0,0,1.4,1.016l2.18-1.584A1.688,1.688,0,0,1,596.567,600.439Z" transform="translate(-416.824 -380.675)" fill="#FFBD64"/>
    </g>
    <g id="グループ_71" data-name="グループ 71" transform="translate(-7.654)">
      <path id="パス_188-5" data-name="パス 188" d="M592.86,603.308a1.685,1.685,0,0,1-.993-.329,1.665,1.665,0,0,1-.614-1.89l.833-2.562a.906.906,0,0,0-.33-1.016l-2.18-1.584a1.69,1.69,0,0,1,.993-3.058h2.694a.906.906,0,0,0,.864-.628l.833-2.562a1.69,1.69,0,0,1,3.215,0l.833,2.562a.906.906,0,0,0,.864.628h2.694a1.69,1.69,0,0,1,.994,3.058l-2.18,1.584a.906.906,0,0,0-.33,1.016l.833,2.562a1.69,1.69,0,0,1-2.6,1.89L597.1,601.4a.906.906,0,0,0-1.068,0l-2.18,1.584A1.685,1.685,0,0,1,592.86,603.308Zm3.707-2.869a1.687,1.687,0,0,1,.993.323l2.18,1.584a.908.908,0,0,0,1.4-1.016l-.833-2.562a1.686,1.686,0,0,1,.614-1.89l2.18-1.584a.908.908,0,0,0-.534-1.643h-2.694a1.686,1.686,0,0,1-1.607-1.168l-.833-2.562a.908.908,0,0,0-1.728,0l-.833,2.562a1.686,1.686,0,0,1-1.607,1.168h-2.694a.908.908,0,0,0-.534,1.643l2.18,1.584a1.686,1.686,0,0,1,.614,1.89L592,601.331a.908.908,0,0,0,1.4,1.016l2.18-1.584A1.688,1.688,0,0,1,596.567,600.439Z" transform="translate(-416.824 -380.675)" fill="#FFBD64"/>
    </g>
  </g>
</svg>
